<svg height="512pt" viewBox="0 -66 512 512" width="512pt" xmlns="http://www.w3.org/2000/svg"><path d="m311.746094 77.042969-193.015625 21.066406 54.617187 168.898437h257.578125l20.128907-18.902343 32.378906-149.996094zm0 0" fill="#fd747f"/><path d="m118.730469 98.109375 9.703125 30h348.523437l6.476563-30-171.6875-21.066406zm0 0" fill="#f25759"/><path d="m483.433594 55.976562h-364.703125v42.132813h364.703125c11.632812 0 21.066406-9.429687 21.066406-21.066406s-9.433594-21.066407-21.066406-21.066407zm0 0" fill="#fedd60"/><path d="m270.601562 333.507812c0 21.808594-17.679687 39.488282-39.488281 39.488282-21.808593 0-39.488281-17.679688-39.488281-39.488282 0-21.808593 17.679688-39.488281 39.488281-39.488281 21.808594 0 39.488281 17.679688 39.488281 39.488281zm0 0" fill="#4f648f"/><path d="m432.078125 333.507812c0 21.808594-17.679687 39.488282-39.488281 39.488282s-39.488282-17.679688-39.488282-39.488282c0-21.808593 17.679688-39.488281 39.488282-39.488281s39.488281 17.679688 39.488281 39.488281zm0 0" fill="#4f648f"/><path d="m451.054688 294.019531h-280.089844c-9.988282 0-18.828125-6.453125-21.867188-15.960937l-65.605468-224.640625h-53.035157c-12.679687 0-22.957031-10.28125-22.957031-22.957031 0-12.679688 10.277344-22.960938 22.957031-22.960938h69.792969c9.984375 0 18.824219 6.453125 21.867188 15.964844l65.605468 224.640625h263.332032c12.679687 0 22.957031 10.277343 22.957031 22.957031s-10.277344 22.957031-22.957031 22.957031zm0 0" fill="#d4d4d4"/><path d="m237.484375 178.929688c4.144531 0 7.5-3.359376 7.5-7.5v-13.4375c0-4.144532-3.355469-7.5-7.5-7.5-4.140625 0-7.5 3.355468-7.5 7.5v13.4375c0 4.140624 3.359375 7.5 7.5 7.5zm0 0"/><path d="m386.003906 178.929688c4.140625 0 7.5-3.359376 7.5-7.5v-13.4375c0-4.144532-3.359375-7.5-7.5-7.5s-7.5 3.355468-7.5 7.5v13.4375c0 4.140624 3.359375 7.5 7.5 7.5zm0 0"/><path d="m311.746094 186.105469c9.308594 0 18.042968-3.890625 23.972656-10.675781 2.726562-3.117188 2.410156-7.855469-.710938-10.582032-3.117187-2.726562-7.855468-2.40625-10.582031.710938-3.078125 3.523437-7.703125 5.542968-12.679687 5.542968-4.980469 0-9.601563-2.019531-12.683594-5.542968-2.722656-3.117188-7.460938-3.4375-10.582031-.710938-3.117188 2.726563-3.4375 7.464844-.710938 10.582032 5.929688 6.785156 14.667969 10.675781 23.976563 10.675781zm0 0"/><path d="m243.972656 333.507812c0 7.101563-5.757812 12.859376-12.859375 12.859376-7.101562 0-12.855469-5.757813-12.855469-12.859376 0-7.097656 5.753907-12.855468 12.855469-12.855468 7.101563 0 12.859375 5.757812 12.859375 12.855468zm0 0"/><path d="m405.445312 333.507812c0 7.101563-5.753906 12.859376-12.855468 12.859376-7.101563 0-12.855469-5.757813-12.855469-12.859376 0-7.097656 5.753906-12.855468 12.855469-12.855468 7.101562 0 12.855468 5.757812 12.855468 12.855468zm0 0"/><path d="m483.433594 48.476562h-40.628906c-4.140626 0-7.5 3.355469-7.5 7.5 0 4.140626 3.359374 7.5 7.5 7.5h40.628906c7.480468 0 13.566406 6.085938 13.566406 13.566407s-6.085938 13.566406-13.566406 13.566406h-333.894532l-7.921874-27.132813h271.1875c4.140624 0 7.5-3.359374 7.5-7.5 0-4.144531-3.359376-7.5-7.5-7.5h-275.570313l-7.917969-27.113281c-.015625-.0625-.035156-.125-.054687-.183593-4.050781-12.667969-15.710938-21.179688-29.007813-21.179688h-69.796875c-16.792969 0-30.457031 13.664062-30.457031 30.460938 0 16.792968 13.664062 30.457031 30.457031 30.457031h47.410157l40.765624 139.582031c1.160157 3.976562 5.328126 6.261719 9.300782 5.097656 3.976562-1.160156 6.257812-5.324218 5.097656-9.300781l-42.339844-144.980469c-.933594-3.199218-3.867187-5.398437-7.199218-5.398437h-53.035157c-8.523437 0-15.457031-6.933594-15.457031-15.457031 0-8.527344 6.933594-15.460938 15.457031-15.460938h69.796875c6.71875 0 12.613282 4.285156 14.695313 10.667969l9.464843 32.410156 56.109376 192.128906c.9375 3.199219 3.867187 5.398438 7.199218 5.398438h263.332032c8.523437 0 15.457031 6.933593 15.457031 15.457031s-6.933594 15.457031-15.457031 15.457031h-280.089844c-6.722656 0-12.617188-4.28125-14.699219-10.664062l-14.472656-49.558594c-1.160157-3.976563-5.324219-6.257813-9.300781-5.097656-3.976563 1.160156-6.257813 5.328125-5.097657 9.304687l14.5 49.65625c.019531.0625.039063.121094.058594.183594 4.050781 12.667969 15.707031 21.179688 29.007813 21.179688h25.777343c-7.816406 8.394531-12.613281 19.636718-12.613281 31.988281 0 25.90625 21.078125 46.984375 46.988281 46.984375 25.910157 0 46.988281-21.078125 46.988281-46.984375 0-12.351563-4.796874-23.59375-12.613281-31.988281h92.726563c-7.820313 8.394531-12.613282 19.636718-12.613282 31.988281 0 25.90625 21.078126 46.984375 46.988282 46.984375 25.90625 0 46.984375-21.078125 46.984375-46.984375 0-12.351563-4.792969-23.59375-12.609375-31.988281h24.085937c16.796875 0 30.460938-13.664063 30.460938-30.460938 0-13.664062-9.042969-25.253906-21.460938-29.097656l29.582031-137.039063c12.78125-2.84375 22.367188-14.261719 22.367188-27.882812 0-15.753907-12.816406-28.566407-28.566406-28.566407zm-252.320313 317.019532c-17.636719 0-31.988281-14.347656-31.988281-31.984375 0-17.632813 14.339844-31.980469 31.96875-31.988281h.039062c17.628907.007812 31.96875 14.355468 31.96875 31.988281 0 17.636719-14.347656 31.984375-31.988281 31.984375zm161.476563 0c-17.636719 0-31.988282-14.347656-31.988282-31.984375 0-17.632813 14.339844-31.980469 31.96875-31.988281h.039063c17.628906.007812 31.96875 14.355468 31.96875 31.988281 0 17.636719-14.351563 31.984375-31.988281 31.984375zm52.410156-124.890625h-251.652344l-39.425781-134.996094h320.21875zm0 0"/></svg>