<?xml version="1.0" encoding="UTF-8"?>
<svg width="400px" height="150px" viewBox="0 0 400 150" version="1.1" xmlns="http://www.w3.org/2000/svg" xmlns:xlink="http://www.w3.org/1999/xlink">
    <!-- Generator: Sketch 47.1 (45422) - http://www.bohemiancoding.com/sketch -->
    <title>BanCoppel@2x</title>
    <desc>Created with Sketch.</desc>
    <defs>
        <polygon id="path-1" points="78.9362567 0.0696524064 2.67379679e-05 0.0696524064 2.67379679e-05 60.1604011 78.9362567 60.1604011 78.9362567 0.0696524064"></polygon>
    </defs>
    <g id="MEXICO" stroke="none" stroke-width="1" fill="none" fill-rule="evenodd">
        <g id="BanCoppel">
            <g id="Logo/Banks/MEX/Bancoppel" transform="translate(25.000000, 45.000000)">
                <path d="M105.425401,42.9800802 L103.529813,42.9800802 L97.6620321,42.9800802 L97.6620321,33.0831551 L98.373262,33.0831551 L103.529813,33.0831551 L104.891979,33.0831551 C112.596524,32.7270053 113.247594,43.5129679 105.425401,42.9800802 L105.425401,42.9800802 Z M97.7208556,18.2677807 L103.262433,18.2677807 L103.529813,18.2677807 L104.950936,18.2677807 C111.05508,18.4462567 111.174064,27.9276738 103.588503,27.4525401 L103.529813,27.4524064 L97.6620321,27.4524064 L97.7208556,18.2677807 Z M112.182086,29.7643048 C113.426738,28.8165775 113.603209,27.9870321 114.195455,26.9791444 C114.730348,25.9712567 115.084492,24.4311497 115.084492,22.3566845 C115.025802,20.3423797 114.22393,12.6957219 103.587567,12.6957219 C102.462032,12.6856952 97.6620321,12.6372995 97.6620321,12.6372995 L91.9148396,12.6372995 L91.9148396,48.9062834 L97.6620321,48.9062834 L103.529813,48.9062834 L105.781016,48.9062834 C107.795722,48.9062834 109.692781,48.4915775 111.351872,47.6620321 C113.011096,46.8318182 114.314439,45.5875668 115.262299,43.9863636 C116.270455,42.3877005 116.743583,40.4320856 116.743583,38.1799465 C116.625936,34.3868984 115.617914,31.4819519 112.182086,29.7643048 L112.182086,29.7643048 Z" id="Fill-1" fill="#106CB5"></path>
                <path d="M223.887968,43.2171257 L223.888235,43.2171257 L223.887968,43.2171257 L223.829144,43.2171257 C219.147594,43.2171257 215.473529,39.3655214 215.473529,34.6239439 C215.473663,30.0013503 219.147326,26.149746 223.829278,26.149746 L223.888235,26.0907888 L223.888235,26.149746 C228.56992,26.149746 232.303743,30.0013503 232.362567,34.6239439 C232.362834,39.3655214 228.569786,43.1569652 223.887968,43.2171257 M223.888235,20.342393 L223.888235,20.3430615 L223.887968,20.3426604 L223.829278,20.342393 C216.005749,20.342393 209.607219,26.8006818 209.607219,34.6239439 C209.607353,42.565254 216.005615,49.0236765 223.829144,49.0236765 L223.894251,49.0236765 C231.71631,49.0236765 238.05107,42.5050936 238.05107,34.6239439 C238.051203,26.8008155 231.710294,20.4020187 223.888235,20.342393" id="Fill-3" fill="#106CB5"></path>
                <path d="M193.07246,12.8743316 C185.486898,13.8823529 179.619251,23.0085561 179.619251,30.7127005 C179.619385,40.7864973 187.561765,48.846123 197.160695,48.846123 L207.295722,48.846123 L207.295722,42.742246 L196.450936,42.742246 C190.051203,42.3282086 185.604545,36.6390374 185.96016,30.1203209 C186.49492,23.423262 190.879947,19.0981283 197.695455,18.7419786 C201.07393,18.7419786 203.799733,18.6237968 207.295722,18.6237968 L207.295722,16.0156417 L207.295722,12.6372995 C202.199599,12.7569519 196.568449,12.4009358 193.07246,12.8743316" id="Fill-7" fill="#106CB5"></path>
                <path d="M254.703636,43.2758289 L254.703503,43.276631 L254.703503,43.2758289 L254.406711,43.2758289 C249.549759,43.2758289 246.111257,39.8389305 246.111257,34.920615 C246.111257,30.1203476 249.489866,25.9712834 254.406711,25.9712834 L254.703503,25.9712834 C259.444144,26.1497594 263.414866,30.0608556 263.298422,34.5652674 C263.178102,39.0680749 259.444278,43.1569786 254.703636,43.2758289 M254.703636,20.2819786 L254.644679,20.2821123 C246.763529,20.2821123 240.303904,26.7429412 240.362594,34.5652674 L240.362594,59.8096524 L245.757246,59.8096524 L245.695481,45.7064439 C248.127166,47.6620588 251.267807,48.9061765 254.703503,48.9063102 L254.703503,48.9053743 L254.703636,48.9063102 L254.703503,48.9063102 L254.703503,48.9063102 C262.584519,48.9063102 268.986925,42.4464171 268.986925,34.5652674 C268.986925,26.7429412 262.584652,20.2819786 254.703636,20.2819786" id="Fill-9" fill="#106CB5"></path>
                <path d="M285.667246,43.2758289 L285.667112,43.276631 L285.667112,43.2758289 L285.370321,43.2758289 C280.513369,43.2758289 277.074866,39.8389305 277.074866,34.920615 C277.074866,30.1203476 280.453476,25.9712834 285.370321,25.9712834 L285.667112,25.9712834 C290.407754,26.1497594 294.378476,30.0608556 294.262032,34.5652674 C294.141711,39.0680749 290.407888,43.1569786 285.667246,43.2758289 M285.667246,20.2819786 L285.608289,20.2821123 C277.727139,20.2821123 271.267513,26.7429412 271.326203,34.5652674 L271.326203,59.8096524 L276.720856,59.8096524 L276.659091,45.7064439 C279.090775,47.6620588 282.231417,48.9061765 285.667112,48.9063102 L285.667112,48.9053743 L285.667246,48.9063102 L285.667112,48.9063102 L285.667112,48.9063102 C293.548128,48.9063102 299.950535,42.4464171 299.950535,34.5652674 C299.950535,26.7429412 293.548262,20.2819786 285.667246,20.2819786" id="Fill-11" fill="#106CB5"></path>
                <path d="M307.446805,34.6239439 C307.446805,30.7127139 310.05389,27.5723396 313.611243,26.4462701 C314.557767,26.0910561 315.565789,25.9125802 316.632634,25.9125802 C318.351885,26.0910561 318.825281,26.505762 319.712981,26.9204679 L313.611243,33.1418583 L308.334505,38.4748797 C307.624612,37.1719385 307.446939,36.1639171 307.446805,34.6239439 M313.611243,42.9800936 C312.900013,42.6826337 312.543061,42.3877139 312.662179,42.3282219 L313.611243,41.3798262 L325.817126,28.8760829 C327.120602,27.9870455 327.063382,25.3193984 325.875949,24.3123128 C325.283703,23.5421257 321.373409,20.2819652 316.691457,20.2820989 C315.624612,20.2820989 314.616858,20.401885 313.611243,20.5794251 C306.913382,22.0013503 301.817393,27.8095053 301.994933,34.6239439 C301.994933,41.5581684 306.973676,47.0101738 313.611243,48.5502807 C315.032366,48.8461364 316.51365,49.0236765 317.995067,48.9062968 L326.825147,48.9062968 L326.825147,43.4542914 L316.691457,43.4542914 C315.327821,43.5129813 314.262447,43.2758155 313.611243,42.9800936" id="Fill-13" fill="#106CB5"></path>
                <path d="M342.113904,42.8024332 C340.277005,42.624893 338.678342,42.2092513 337.670053,41.3798396 C336.129947,40.0174064 334.825267,37.8230214 334.528342,34.3282353 L334.528342,12.8743583 L329.254412,12.8743583 L329.077807,33.3789037 C329.077807,40.1933422 330.913636,43.4543048 333.818449,46.2972193 C335.952139,48.3139305 339.684759,48.9659358 343.241176,48.9659358 L349.87861,48.8461497 L349.87861,42.8024332 L342.113904,42.8024332 Z" id="Fill-15" fill="#106CB5"></path>
                <path d="M172.750762,23.4176738 L172.687393,23.3645989 C169.842473,20.8752941 166.109987,19.9862567 162.553703,20.3424064 C160.005575,20.6381283 157.115468,22.0432086 155.382714,23.3645989 C151.66266,26.2010963 152.123356,31.4240909 152.123356,31.4240909 L152.123356,49.2021658 L152.183516,49.2021658 L157.634051,49.2021658 L157.634051,31.3645989 C157.634051,28.0457487 160.658115,26.1497594 163.679372,25.9712834 C167.076029,26.0172727 170.43619,27.9870588 170.43619,31.3645989 L170.43619,49.2021658 L175.827901,49.2021658 L175.946885,49.2021658 L175.946885,31.4240909 C175.946885,31.4240909 176.048757,26.0851872 172.750762,23.4176738" id="Fill-17" fill="#106CB5"></path>
                <path d="M134.404118,43.5716845 L134.404118,43.5716845 L134.345294,43.5716845 C129.604519,43.5716845 125.869225,39.7199465 125.869225,34.980107 C125.869358,30.2393316 129.604519,26.4462834 134.345294,26.4462834 L134.404118,26.4462834 C139.144759,26.4462834 142.938743,30.2393316 142.938743,34.980107 C142.938743,39.7199465 139.144759,43.5716845 134.404118,43.5716845 M134.404118,20.6381283 L134.404118,20.6379947 L134.345294,20.6379947 C126.403984,20.6379947 119.944091,27.0981551 119.944091,34.980107 C119.944091,42.9198128 126.403984,49.3806417 134.34516,49.3806417 L134.403984,49.3806417 L134.404118,49.3806417 C137.663476,49.3806417 140.684733,48.2544385 143.057727,46.4170053 L143.057727,49.1434759 L148.745027,49.1434759 L148.745027,33.9133957 C148.745027,25.9504278 141.930856,20.6968182 134.404118,20.6381283" id="Fill-19" fill="#106CB5"></path>
                <g id="Group-23" transform="translate(0.000000, 0.064037)">
                    <mask id="mask-2" fill="white">
                        <use xlink:href="#path-1"></use>
                    </mask>
                    <g id="Clip-22"></g>
                    <path d="M2.84374332,0.0696256684 L76.0912032,0.0696256684 C77.6914706,0.0696256684 78.936123,1.55104278 78.936123,3.3297861 L78.9362567,56.9018449 C78.9362567,58.678984 77.6914706,60.1604011 76.0912032,60.1604011 L2.84374332,60.1604011 C1.30377005,60.1604011 2.67379679e-05,58.678984 2.67379679e-05,56.9018449 L2.67379679e-05,3.32965241 C2.67379679e-05,1.55090909 1.30377005,0.0696256684 2.84374332,0.0696256684" id="Fill-21" fill="#106CB5" mask="url(#mask-2)"></path>
                </g>
                <polygon id="Fill-24" fill="#F6D00D" points="58.2542914 35.6897059 58.2542914 44.9356952 61.7502807 44.9356952 61.7502807 41.4986631 63.4681952 41.4986631 65.1272861 41.4986631 65.1272861 44.8754011 68.6835695 44.8754011 68.6835695 35.6897059 63.4681952 35.6897059"></polygon>
                <path d="M23.4077273,28.9347594 C21.6892781,28.9347594 20.3268449,27.5723262 20.3268449,25.853877 C20.3268449,24.1354278 21.6894118,22.7127005 23.4077273,22.7127005 C25.1263102,22.7127005 26.4908824,24.1354278 26.4908824,25.853877 C26.4908824,27.5723262 25.1261765,28.9347594 23.4077273,28.9347594 L23.4077273,28.9347594 Z M23.4077273,41.3798128 L23.4077273,41.3798128 L23.4077273,41.3897059 L23.4077273,41.3798128 C21.6892781,41.3798128 20.3268449,39.9562834 20.3268449,38.2987968 C20.3268449,36.5787433 21.6894118,35.1576203 23.4077273,35.1576203 C25.1263102,35.1576203 26.4908824,36.5787433 26.4908824,38.2987968 C26.4908824,39.9562834 25.1261765,41.3798128 23.4077273,41.3798128 L23.4077273,41.3798128 Z M14.3402139,35.1576203 C12.6217647,35.1576203 11.2593316,33.7350267 11.2593316,32.0751337 C11.2593316,30.3574866 12.6217647,28.9942513 14.3402139,28.9942513 C16.000107,28.9942513 17.4227005,30.3574866 17.4227005,32.0751337 C17.4227005,33.7350267 16.000107,35.1576203 14.3402139,35.1576203 L14.3402139,35.1576203 Z M63.4681551,29.0537433 L29.6900802,29.0537433 C30.1045187,28.1647059 30.3424866,27.1576203 30.3424866,26.0910428 C30.3424866,22.238369 27.2595989,19.0981283 23.4664171,19.0981283 L23.4077273,19.0981283 C19.7344652,19.1568182 16.7708289,22.0608289 16.5337968,25.6754011 C15.8819251,25.378877 15.1110695,25.2606952 14.3402139,25.2020053 L13.9858021,25.2020053 C10.192754,25.2020053 7.05237968,28.2828877 7.05237968,32.0751337 C7.05237968,35.9268717 10.192754,39.0093583 13.9858021,39.0093583 L14.3402139,39.0093583 L14.3402139,39.0093583 C15.1110695,39.0093583 15.8820588,38.8318182 16.5337968,38.5351604 C16.7705615,42.1455882 19.7415508,45.046123 23.4077273,45.0541444 L23.4077273,45.0545455 L23.4665508,45.0545455 C27.2595989,45.0545455 30.3424866,41.9729947 30.3424866,38.1203209 C30.3424866,37.1132353 30.1633422,36.1053476 29.7489037,35.2171123 L56.4748396,35.2171123 L63.4681551,35.2171123 L65.3157487,35.2171123 L71.8827273,35.2171123 L71.8827273,29.0537433 L63.4681551,29.0537433 Z" id="Fill-26" fill="#F6D00D"></path>
            </g>
        </g>
    </g>
</svg>