<?xml version="1.0" encoding="UTF-8"?>
<svg xmlns="http://www.w3.org/2000/svg" xmlns:xlink="http://www.w3.org/1999/xlink" width="375pt" height="374.999991pt" viewBox="0 0 375 374.999991" version="1.2">
<defs>
<clipPath id="clip1">
  <path d="M 10.792969 10.789062 L 364.039062 10.789062 L 364.039062 364.039062 L 10.792969 364.039062 Z M 10.792969 10.789062 "/>
</clipPath>
</defs>
<g id="surface1">
<g clip-path="url(#clip1)" clip-rule="nonzero">
<path style=" stroke:none;fill-rule:nonzero;fill:rgb(100%,75.689697%,2.749634%);fill-opacity:1;" d="M 116.765625 293.390625 C 97.25 293.390625 81.617188 309.199219 81.617188 328.714844 C 81.617188 348.234375 97.25 364.039062 116.765625 364.039062 C 136.28125 364.039062 152.089844 348.234375 152.089844 328.714844 C 152.089844 309.199219 136.28125 293.390625 116.765625 293.390625 Z M 10.792969 10.789062 L 10.792969 46.117188 L 46.117188 46.117188 L 109.613281 180.085938 L 85.769531 223.359375 C 83.03125 228.480469 81.441406 234.222656 81.441406 240.402344 C 81.441406 259.921875 97.25 275.726562 116.765625 275.726562 L 328.714844 275.726562 L 328.714844 240.402344 L 124.273438 240.402344 C 121.800781 240.402344 119.855469 238.460938 119.855469 235.988281 C 119.855469 235.191406 120.035156 234.488281 120.386719 233.867188 L 136.195312 205.078125 L 267.78125 205.078125 C 281.027344 205.078125 292.597656 197.75 298.691406 186.886719 L 361.832031 72.257812 C 363.246094 69.785156 364.039062 66.871094 364.039062 63.777344 C 364.039062 53.976562 356.09375 46.117188 346.378906 46.117188 L 85.238281 46.117188 L 68.460938 10.792969 L 10.792969 10.792969 Z M 293.390625 293.390625 C 273.875 293.390625 258.242188 309.199219 258.242188 328.714844 C 258.242188 348.234375 273.875 364.039062 293.390625 364.039062 C 312.90625 364.039062 328.714844 348.234375 328.714844 328.714844 C 328.714844 309.199219 312.90625 293.390625 293.390625 293.390625 Z M 293.390625 293.390625 "/>
</g>
</g>
</svg>
