<?xml version="1.0" encoding="UTF-8"?>
<svg xmlns="http://www.w3.org/2000/svg" xmlns:xlink="http://www.w3.org/1999/xlink" width="375pt" height="374.999991pt" viewBox="0 0 375 374.999991" version="1.2">
<defs>
<clipPath id="clip1">
  <path d="M 89 5.816406 L 239 5.816406 L 239 170 L 89 170 Z M 89 5.816406 "/>
</clipPath>
<clipPath id="clip2">
  <path d="M 18.039062 107 L 323 107 L 323 368.816406 L 18.039062 368.816406 Z M 18.039062 107 "/>
</clipPath>
<clipPath id="clip3">
  <path d="M 52 107 L 357 107 L 357 368.816406 L 52 368.816406 Z M 52 107 "/>
</clipPath>
<clipPath id="clip4">
  <path d="M 127 5.816406 L 277 5.816406 L 277 170 L 127 170 Z M 127 5.816406 "/>
</clipPath>
</defs>
<g id="surface1">
<g clip-path="url(#clip1)" clip-rule="nonzero">
<path style=" stroke:none;fill-rule:nonzero;fill:rgb(6.269836%,5.879211%,5.879211%);fill-opacity:1;" d="M 230.410156 169.539062 C 225.683594 169.539062 221.851562 165.710938 221.851562 160.992188 L 221.851562 80.394531 C 221.851562 48.671875 196.011719 22.863281 164.265625 22.863281 C 132.503906 22.863281 106.664062 48.671875 106.664062 80.394531 L 106.664062 160.992188 C 106.664062 165.710938 102.828125 169.539062 98.121094 169.539062 C 93.378906 169.539062 89.5625 165.710938 89.5625 160.992188 L 89.5625 80.394531 C 89.5625 39.25 123.070312 5.78125 164.265625 5.78125 C 205.460938 5.78125 238.972656 39.25 238.972656 80.394531 L 238.972656 160.992188 C 238.972656 165.710938 235.15625 169.539062 230.410156 169.539062 "/>
</g>
<g clip-path="url(#clip2)" clip-rule="nonzero">
<path style=" stroke:none;fill-rule:nonzero;fill:rgb(96.078491%,50.19989%,7.449341%);fill-opacity:1;" d="M 322.613281 348.101562 C 322.613281 359.519531 313.25 368.851562 301.816406 368.851562 L 39.414062 368.851562 C 27.980469 368.851562 18.636719 359.519531 18.636719 348.101562 L 18.867188 127.988281 C 18.867188 116.570312 28.230469 107.21875 39.660156 107.21875 L 296.859375 107.21875 C 308.292969 107.21875 317.652344 116.570312 317.652344 127.988281 L 322.613281 348.101562 "/>
</g>
<g clip-path="url(#clip3)" clip-rule="nonzero">
<path style=" stroke:none;fill-rule:nonzero;fill:rgb(100%,75.689697%,2.749634%);fill-opacity:1;" d="M 356.621094 348.101562 C 356.621094 359.519531 347.277344 368.851562 335.84375 368.851562 L 73.4375 368.851562 C 62.007812 368.851562 52.644531 359.519531 52.644531 348.101562 L 52.894531 127.988281 C 52.894531 116.570312 62.238281 107.21875 73.671875 107.21875 L 330.886719 107.21875 C 342.316406 107.21875 351.679688 116.570312 351.679688 127.988281 L 356.621094 348.101562 "/>
</g>
<path style=" stroke:none;fill-rule:nonzero;fill:rgb(96.078491%,50.19989%,7.449341%);fill-opacity:1;" d="M 154.796875 160.992188 C 154.796875 171.945312 145.898438 180.832031 134.929688 180.832031 C 123.945312 180.832031 115.046875 171.945312 115.046875 160.992188 C 115.046875 150.019531 123.945312 141.148438 134.929688 141.148438 C 145.898438 141.148438 154.796875 150.019531 154.796875 160.992188 "/>
<path style=" stroke:none;fill-rule:nonzero;fill:rgb(96.078491%,50.19989%,7.449341%);fill-opacity:1;" d="M 289.511719 160.992188 C 289.511719 171.945312 280.613281 180.832031 269.644531 180.832031 C 258.660156 180.832031 249.761719 171.945312 249.761719 160.992188 C 249.761719 150.019531 258.660156 141.148438 269.644531 141.148438 C 280.613281 141.148438 289.511719 150.019531 289.511719 160.992188 "/>
<g clip-path="url(#clip4)" clip-rule="nonzero">
<path style=" stroke:none;fill-rule:nonzero;fill:rgb(7.839966%,8.239746%,8.239746%);fill-opacity:1;" d="M 268.433594 169.539062 C 263.707031 169.539062 259.871094 165.710938 259.871094 160.992188 L 259.871094 80.394531 C 259.871094 48.671875 234.03125 22.863281 202.289062 22.863281 C 170.527344 22.863281 144.683594 48.671875 144.683594 80.394531 L 144.683594 160.992188 C 144.683594 165.710938 140.851562 169.539062 136.125 169.539062 C 131.398438 169.539062 127.5625 165.710938 127.5625 160.992188 L 127.5625 80.394531 C 127.5625 39.25 161.074219 5.78125 202.289062 5.78125 C 243.484375 5.78125 276.992188 39.25 276.992188 80.394531 L 276.992188 160.992188 C 276.992188 165.710938 273.160156 169.539062 268.433594 169.539062 "/>
</g>
<path style=" stroke:none;fill-rule:nonzero;fill:rgb(100%,100%,100%);fill-opacity:1;" d="M 285.445312 228.105469 L 282.164062 227.945312 C 276.707031 227.695312 272.105469 231.453125 271.875 236.371094 L 270.574219 264.066406 L 270.554688 264.03125 L 266.933594 257.617188 L 234.226562 199.765625 C 231.945312 195.722656 226.808594 194.300781 222.761719 196.578125 L 220.316406 197.949219 C 216.269531 200.246094 214.84375 205.359375 217.125 209.402344 L 232.785156 237.117188 C 230.820312 236.691406 228.71875 236.941406 226.84375 237.992188 L 224.382812 239.363281 C 220.351562 241.660156 218.910156 246.773438 221.210938 250.816406 C 218.910156 246.773438 213.789062 245.347656 209.742188 247.625 L 207.28125 249.015625 C 203.25 251.296875 201.804688 256.425781 204.089844 260.46875 C 201.804688 256.425781 196.6875 255 192.621094 257.28125 L 190.195312 258.652344 C 186.148438 260.933594 184.703125 266.0625 186.984375 270.105469 L 200.949219 294.808594 C 200.949219 294.808594 219.390625 328.492188 227.128906 337.789062 C 234.300781 346.464844 235.851562 344.289062 239.007812 347.425781 C 243.660156 352.054688 248.121094 355.921875 252.167969 353.640625 L 290.652344 331.945312 C 294.71875 329.667969 294.558594 323.558594 292.152344 317.464844 C 291.277344 315.257812 290.101562 309.058594 290.6875 308.042969 C 290.6875 308.042969 291.832031 303.929688 291.777344 303.199219 L 294.878906 237.457031 C 295.113281 232.539062 290.886719 228.355469 285.445312 228.105469 "/>
</g>
</svg>
