<?xml version="1.0" encoding="UTF-8"?>
<svg xmlns="http://www.w3.org/2000/svg" xmlns:xlink="http://www.w3.org/1999/xlink" width="375pt" height="374.999991pt" viewBox="0 0 375 374.999991" version="1.2">
<defs>
<clipPath id="clip1">
  <path d="M 98 276 L 173 276 L 173 350.941406 L 98 350.941406 Z M 98 276 "/>
</clipPath>
<clipPath id="clip2">
  <path d="M 9 23.941406 L 365.992188 23.941406 L 365.992188 262 L 9 262 Z M 9 23.941406 "/>
</clipPath>
<clipPath id="clip3">
  <path d="M 246 276 L 322 276 L 322 350.941406 L 246 350.941406 Z M 246 276 "/>
</clipPath>
</defs>
<g id="surface1">
<g clip-path="url(#clip1)" clip-rule="nonzero">
<path style=" stroke:none;fill-rule:nonzero;fill:rgb(100%,75.689697%,2.749634%);fill-opacity:1;" d="M 172.621094 313.78125 C 172.621094 315 172.5625 316.214844 172.445312 317.425781 C 172.324219 318.636719 172.144531 319.839844 171.910156 321.03125 C 171.671875 322.226562 171.375 323.40625 171.023438 324.570312 C 170.667969 325.734375 170.257812 326.878906 169.792969 328.003906 C 169.328125 329.128906 168.808594 330.226562 168.234375 331.300781 C 167.660156 332.371094 167.035156 333.414062 166.359375 334.425781 C 165.683594 335.4375 164.957031 336.414062 164.183594 337.355469 C 163.414062 338.296875 162.597656 339.199219 161.734375 340.058594 C 160.875 340.917969 159.972656 341.734375 159.03125 342.507812 C 158.089844 343.277344 157.113281 344.003906 156.101562 344.679688 C 155.089844 345.355469 154.046875 345.980469 152.972656 346.554688 C 151.898438 347.128906 150.800781 347.648438 149.675781 348.113281 C 148.550781 348.578125 147.40625 348.988281 146.242188 349.339844 C 145.078125 349.695312 143.898438 349.988281 142.703125 350.226562 C 141.507812 350.464844 140.304688 350.644531 139.09375 350.761719 C 137.882812 350.882812 136.667969 350.941406 135.453125 350.941406 C 134.234375 350.941406 133.019531 350.882812 131.808594 350.761719 C 130.597656 350.644531 129.394531 350.464844 128.199219 350.226562 C 127.007812 349.988281 125.828125 349.695312 124.660156 349.339844 C 123.496094 348.988281 122.351562 348.578125 121.226562 348.113281 C 120.101562 347.648438 119.003906 347.128906 117.929688 346.554688 C 116.855469 345.980469 115.8125 345.355469 114.800781 344.679688 C 113.789062 344.003906 112.8125 343.277344 111.871094 342.507812 C 110.929688 341.734375 110.027344 340.917969 109.167969 340.058594 C 108.308594 339.199219 107.488281 338.296875 106.71875 337.355469 C 105.945312 336.414062 105.222656 335.4375 104.542969 334.425781 C 103.867188 333.414062 103.242188 332.371094 102.667969 331.300781 C 102.09375 330.226562 101.574219 329.128906 101.109375 328.003906 C 100.644531 326.878906 100.234375 325.734375 99.882812 324.570312 C 99.527344 323.40625 99.230469 322.226562 98.996094 321.03125 C 98.757812 319.839844 98.578125 318.636719 98.460938 317.425781 C 98.339844 316.214844 98.28125 315 98.28125 313.78125 C 98.28125 312.566406 98.339844 311.351562 98.460938 310.140625 C 98.578125 308.929688 98.757812 307.726562 98.996094 306.53125 C 99.230469 305.339844 99.527344 304.160156 99.882812 302.996094 C 100.234375 301.832031 100.644531 300.6875 101.109375 299.5625 C 101.574219 298.4375 102.09375 297.339844 102.667969 296.265625 C 103.242188 295.191406 103.867188 294.148438 104.542969 293.136719 C 105.222656 292.125 105.945312 291.148438 106.71875 290.207031 C 107.488281 289.269531 108.308594 288.367188 109.167969 287.507812 C 110.027344 286.644531 110.929688 285.832031 111.871094 285.058594 C 112.8125 284.285156 113.789062 283.5625 114.800781 282.886719 C 115.8125 282.210938 116.855469 281.585938 117.929688 281.011719 C 119.003906 280.4375 120.101562 279.917969 121.226562 279.453125 C 122.351562 278.984375 123.496094 278.578125 124.660156 278.222656 C 125.828125 277.871094 127.007812 277.574219 128.199219 277.335938 C 129.394531 277.101562 130.597656 276.921875 131.808594 276.800781 C 133.019531 276.683594 134.234375 276.625 135.453125 276.625 C 136.667969 276.625 137.882812 276.683594 139.09375 276.800781 C 140.304688 276.921875 141.507812 277.101562 142.703125 277.335938 C 143.898438 277.574219 145.078125 277.871094 146.242188 278.222656 C 147.40625 278.578125 148.550781 278.984375 149.675781 279.453125 C 150.800781 279.917969 151.898438 280.4375 152.972656 281.011719 C 154.046875 281.585938 155.089844 282.210938 156.101562 282.886719 C 157.113281 283.5625 158.089844 284.285156 159.03125 285.058594 C 159.972656 285.832031 160.875 286.644531 161.734375 287.507812 C 162.597656 288.367188 163.414062 289.269531 164.183594 290.207031 C 164.957031 291.148438 165.683594 292.125 166.359375 293.136719 C 167.035156 294.148438 167.660156 295.191406 168.234375 296.265625 C 168.808594 297.339844 169.328125 298.4375 169.792969 299.5625 C 170.257812 300.6875 170.667969 301.832031 171.023438 302.996094 C 171.375 304.160156 171.671875 305.339844 171.910156 306.53125 C 172.144531 307.726562 172.324219 308.929688 172.445312 310.140625 C 172.5625 311.351562 172.621094 312.566406 172.621094 313.78125 Z M 172.621094 313.78125 "/>
</g>
<g clip-path="url(#clip2)" clip-rule="nonzero">
<path style=" stroke:none;fill-rule:nonzero;fill:rgb(100%,75.689697%,2.749634%);fill-opacity:1;" d="M 364.425781 71.503906 C 362.9375 70.019531 361.453125 68.53125 358.480469 68.53125 L 75.976562 68.53125 L 68.542969 29.886719 C 67.058594 26.914062 64.082031 23.941406 61.109375 23.941406 L 16.503906 23.941406 C 12.042969 23.941406 9.070312 26.914062 9.070312 31.375 C 9.070312 35.832031 12.042969 38.804688 16.503906 38.804688 L 55.160156 38.804688 L 90.847656 220.140625 C 96.792969 243.921875 117.609375 261.757812 142.886719 261.757812 L 313.875 261.757812 C 318.332031 261.757812 321.308594 258.785156 321.308594 254.328125 C 321.308594 249.867188 318.332031 246.894531 313.875 246.894531 L 142.886719 246.894531 C 130.992188 246.894531 119.097656 240.949219 113.148438 230.546875 L 330.230469 200.820312 C 333.203125 200.820312 336.175781 197.847656 336.175781 194.875 L 365.914062 75.964844 C 365.914062 75.964844 365.914062 72.992188 364.425781 71.503906 Z M 364.425781 71.503906 "/>
</g>
<g clip-path="url(#clip3)" clip-rule="nonzero">
<path style=" stroke:none;fill-rule:nonzero;fill:rgb(100%,75.689697%,2.749634%);fill-opacity:1;" d="M 321.308594 313.78125 C 321.308594 315 321.246094 316.214844 321.128906 317.425781 C 321.007812 318.636719 320.832031 319.839844 320.59375 321.03125 C 320.355469 322.226562 320.058594 323.40625 319.707031 324.570312 C 319.355469 325.734375 318.945312 326.878906 318.476562 328.003906 C 318.011719 329.128906 317.492188 330.226562 316.917969 331.300781 C 316.34375 332.371094 315.71875 333.414062 315.042969 334.425781 C 314.367188 335.4375 313.640625 336.414062 312.871094 337.355469 C 312.097656 338.296875 311.28125 339.199219 310.421875 340.058594 C 309.558594 340.917969 308.660156 341.734375 307.71875 342.507812 C 306.777344 343.277344 305.800781 344.003906 304.789062 344.679688 C 303.773438 345.355469 302.730469 345.980469 301.660156 346.554688 C 300.585938 347.128906 299.484375 347.648438 298.359375 348.113281 C 297.238281 348.578125 296.089844 348.988281 294.925781 349.339844 C 293.761719 349.695312 292.582031 349.988281 291.386719 350.226562 C 290.195312 350.464844 288.992188 350.644531 287.78125 350.761719 C 286.566406 350.882812 285.355469 350.941406 284.136719 350.941406 C 282.917969 350.941406 281.703125 350.882812 280.492188 350.761719 C 279.28125 350.644531 278.078125 350.464844 276.882812 350.226562 C 275.691406 349.988281 274.511719 349.695312 273.347656 349.339844 C 272.179688 348.988281 271.035156 348.578125 269.910156 348.113281 C 268.785156 347.648438 267.6875 347.128906 266.613281 346.554688 C 265.539062 345.980469 264.496094 345.355469 263.484375 344.679688 C 262.472656 344.003906 261.496094 343.277344 260.554688 342.507812 C 259.613281 341.734375 258.714844 340.917969 257.851562 340.058594 C 256.992188 339.199219 256.175781 338.296875 255.402344 337.355469 C 254.628906 336.414062 253.90625 335.4375 253.230469 334.425781 C 252.554688 333.414062 251.929688 332.371094 251.355469 331.300781 C 250.78125 330.226562 250.261719 329.128906 249.792969 328.003906 C 249.328125 326.878906 248.917969 325.734375 248.566406 324.570312 C 248.210938 323.40625 247.917969 322.226562 247.679688 321.03125 C 247.441406 319.839844 247.261719 318.636719 247.144531 317.425781 C 247.023438 316.214844 246.964844 315 246.964844 313.78125 C 246.964844 312.566406 247.023438 311.351562 247.144531 310.140625 C 247.261719 308.929688 247.441406 307.726562 247.679688 306.53125 C 247.917969 305.339844 248.210938 304.160156 248.566406 302.996094 C 248.917969 301.832031 249.328125 300.6875 249.792969 299.5625 C 250.261719 298.4375 250.78125 297.339844 251.355469 296.265625 C 251.929688 295.191406 252.554688 294.148438 253.230469 293.136719 C 253.90625 292.125 254.628906 291.148438 255.402344 290.207031 C 256.175781 289.269531 256.992188 288.367188 257.851562 287.507812 C 258.714844 286.644531 259.613281 285.832031 260.554688 285.058594 C 261.496094 284.285156 262.472656 283.5625 263.484375 282.886719 C 264.496094 282.210938 265.539062 281.585938 266.613281 281.011719 C 267.6875 280.4375 268.785156 279.917969 269.910156 279.453125 C 271.035156 278.984375 272.179688 278.578125 273.347656 278.222656 C 274.511719 277.871094 275.691406 277.574219 276.882812 277.335938 C 278.078125 277.101562 279.28125 276.921875 280.492188 276.800781 C 281.703125 276.683594 282.917969 276.625 284.136719 276.625 C 285.355469 276.625 286.566406 276.683594 287.78125 276.800781 C 288.992188 276.921875 290.195312 277.101562 291.386719 277.335938 C 292.582031 277.574219 293.761719 277.871094 294.925781 278.222656 C 296.089844 278.578125 297.238281 278.984375 298.359375 279.453125 C 299.484375 279.917969 300.585938 280.4375 301.660156 281.011719 C 302.730469 281.585938 303.773438 282.210938 304.789062 282.886719 C 305.800781 283.5625 306.777344 284.285156 307.71875 285.058594 C 308.660156 285.832031 309.558594 286.644531 310.421875 287.507812 C 311.28125 288.367188 312.097656 289.269531 312.871094 290.207031 C 313.640625 291.148438 314.367188 292.125 315.042969 293.136719 C 315.71875 294.148438 316.34375 295.191406 316.917969 296.265625 C 317.492188 297.339844 318.011719 298.4375 318.476562 299.5625 C 318.945312 300.6875 319.355469 301.832031 319.707031 302.996094 C 320.058594 304.160156 320.355469 305.339844 320.59375 306.53125 C 320.832031 307.726562 321.007812 308.929688 321.128906 310.140625 C 321.246094 311.351562 321.308594 312.566406 321.308594 313.78125 Z M 321.308594 313.78125 "/>
</g>
</g>
</svg>
