<?xml version="1.0" encoding="UTF-8"?>
<svg xmlns="http://www.w3.org/2000/svg" xmlns:xlink="http://www.w3.org/1999/xlink" width="375pt" height="374.999991pt" viewBox="0 0 375 374.999991" version="1.2">
<defs>
<clipPath id="clip1">
  <path d="M 244 266 L 314 266 L 314 334.875 L 244 334.875 Z M 244 266 "/>
</clipPath>
<clipPath id="clip2">
  <path d="M 107 266 L 176 266 L 176 334.875 L 107 334.875 Z M 107 266 "/>
</clipPath>
<clipPath id="clip3">
  <path d="M 9.742188 40.125 L 316 40.125 L 316 272 L 9.742188 272 Z M 9.742188 40.125 "/>
</clipPath>
<clipPath id="clip4">
  <path d="M 278 144 L 365.242188 144 L 365.242188 240 L 278 240 Z M 278 144 "/>
</clipPath>
</defs>
<g id="surface1">
<path style=" stroke:none;fill-rule:nonzero;fill:rgb(100%,75.689697%,2.749634%);fill-opacity:1;" d="M 325.800781 196.46875 C 325.800781 201.730469 320.632812 206.027344 314.316406 206.027344 L 144.574219 206.027344 C 138.257812 206.027344 133.089844 201.730469 133.089844 196.46875 L 111.054688 62.363281 C 111.054688 57.117188 116.222656 52.820312 122.523438 52.820312 L 342.960938 52.820312 C 349.261719 52.820312 354.429688 57.117188 354.429688 62.363281 L 325.800781 196.46875 "/>
<path style="fill:none;stroke-width:47.688999;stroke-linecap:round;stroke-linejoin:round;stroke:rgb(0%,0%,0%);stroke-opacity:1;stroke-miterlimit:10;" d="M 3004.810188 2068.19792 C 3004.810188 2034.29018 2971.505499 2006.600118 2930.799767 2006.600118 L 1836.905608 2006.600118 C 1796.199877 2006.600118 1762.895188 2034.29018 1762.895188 2068.19792 L 1620.890839 2932.404769 C 1620.890839 2966.211817 1654.195529 2993.90188 1694.800566 2993.90188 L 3115.397868 2993.90188 C 3156.002905 2993.90188 3189.307595 2966.211817 3189.307595 2932.404769 Z M 3004.810188 2068.19792 " transform="matrix(0.155172,0,0,-0.155178,-140.462842,517.406558)"/>
<path style=" stroke:none;fill-rule:nonzero;fill:rgb(100%,75.689697%,2.749634%);fill-opacity:1;" d="M 309.566406 300.3125 C 309.566406 317.195312 295.882812 330.898438 278.984375 330.898438 C 262.085938 330.898438 248.398438 317.195312 248.398438 300.3125 C 248.398438 283.414062 262.085938 269.726562 278.984375 269.726562 C 295.882812 269.726562 309.566406 283.414062 309.566406 300.3125 "/>
<g clip-path="url(#clip1)" clip-rule="nonzero">
<path style="fill:none;stroke-width:47.688999;stroke-linecap:round;stroke-linejoin:round;stroke:rgb(0%,0%,0%);stroke-opacity:1;stroke-miterlimit:10;" d="M 2900.188655 1399.00463 C 2900.188655 1290.207857 2812.00549 1201.901731 2703.104442 1201.901731 C 2594.203394 1201.901731 2505.995056 1290.207857 2505.995056 1399.00463 C 2505.995056 1507.902093 2594.203394 1596.107529 2703.104442 1596.107529 C 2812.00549 1596.107529 2900.188655 1507.902093 2900.188655 1399.00463 Z M 2900.188655 1399.00463 " transform="matrix(0.155172,0,0,-0.155178,-140.462842,517.406558)"/>
</g>
<path style=" stroke:none;fill-rule:nonzero;fill:rgb(100%,75.689697%,2.749634%);fill-opacity:1;" d="M 293.367188 300.3125 C 293.367188 308.257812 286.929688 314.699219 278.984375 314.699219 C 271.039062 314.699219 264.597656 308.257812 264.597656 300.3125 C 264.597656 292.367188 271.039062 285.914062 278.984375 285.914062 C 286.929688 285.914062 293.367188 292.367188 293.367188 300.3125 "/>
<path style="fill:none;stroke-width:47.688999;stroke-linecap:round;stroke-linejoin:round;stroke:rgb(0%,0%,0%);stroke-opacity:1;stroke-miterlimit:10;" d="M 2795.793683 1399.00463 C 2795.793683 1347.803187 2754.30757 1306.293266 2703.104442 1306.293266 C 2651.901314 1306.293266 2610.390027 1347.803187 2610.390027 1399.00463 C 2610.390027 1450.206073 2651.901314 1491.791512 2703.104442 1491.791512 C 2754.30757 1491.791512 2795.793683 1450.206073 2795.793683 1399.00463 Z M 2795.793683 1399.00463 " transform="matrix(0.155172,0,0,-0.155178,-140.462842,517.406558)"/>
<path style=" stroke:none;fill-rule:nonzero;fill:rgb(100%,75.689697%,2.749634%);fill-opacity:1;" d="M 172.226562 300.3125 C 172.226562 317.195312 158.539062 330.898438 141.640625 330.898438 C 124.742188 330.898438 111.054688 317.195312 111.054688 300.3125 C 111.054688 283.414062 124.742188 269.726562 141.640625 269.726562 C 158.539062 269.726562 172.226562 283.414062 172.226562 300.3125 "/>
<g clip-path="url(#clip2)" clip-rule="nonzero">
<path style="fill:none;stroke-width:47.688999;stroke-linecap:round;stroke-linejoin:round;stroke:rgb(0%,0%,0%);stroke-opacity:1;stroke-miterlimit:10;" d="M 2015.109612 1399.00463 C 2015.109612 1290.207857 1926.901273 1201.901731 1818.000225 1201.901731 C 1709.099178 1201.901731 1620.890839 1290.207857 1620.890839 1399.00463 C 1620.890839 1507.902093 1709.099178 1596.107529 1818.000225 1596.107529 C 1926.901273 1596.107529 2015.109612 1507.902093 2015.109612 1399.00463 Z M 2015.109612 1399.00463 " transform="matrix(0.155172,0,0,-0.155178,-140.462842,517.406558)"/>
</g>
<path style=" stroke:none;fill-rule:nonzero;fill:rgb(100%,75.689697%,2.749634%);fill-opacity:1;" d="M 156.023438 300.3125 C 156.023438 308.257812 149.585938 314.699219 141.640625 314.699219 C 133.695312 314.699219 127.257812 308.257812 127.257812 300.3125 C 127.257812 292.367188 133.695312 285.914062 141.640625 285.914062 C 149.585938 285.914062 156.023438 292.367188 156.023438 300.3125 "/>
<path style="fill:none;stroke-width:47.688999;stroke-linecap:round;stroke-linejoin:round;stroke:rgb(0%,0%,0%);stroke-opacity:1;stroke-miterlimit:10;" d="M 1910.689467 1399.00463 C 1910.689467 1347.803187 1869.203353 1306.293266 1818.000225 1306.293266 C 1766.797097 1306.293266 1725.310984 1347.803187 1725.310984 1399.00463 C 1725.310984 1450.206073 1766.797097 1491.791512 1818.000225 1491.791512 C 1869.203353 1491.791512 1910.689467 1450.206073 1910.689467 1399.00463 Z M 1910.689467 1399.00463 " transform="matrix(0.155172,0,0,-0.155178,-140.462842,517.406558)"/>
<path style=" stroke:none;fill-rule:nonzero;fill:rgb(100%,75.689697%,2.749634%);fill-opacity:1;" d="M 304.726562 253.308594 L 123.75 253.308594 C 121.3125 253.140625 114.050781 251.914062 113.710938 243.625 C 113.710938 243.425781 113.695312 243.316406 113.679688 243.097656 C 113.554688 241.90625 113.664062 238.273438 115.632812 236.085938 C 117.15625 234.378906 119.839844 233.492188 123.53125 233.445312 L 277.632812 233.445312 C 281.605469 233.445312 284.832031 230.234375 284.832031 226.246094 C 284.832031 222.273438 281.605469 219.046875 277.632812 219.046875 L 123.453125 219.046875 C 122.941406 219.046875 122.445312 219.078125 121.949219 219.09375 L 94.515625 51.6875 C 93.800781 47.3125 90.015625 44.101562 85.59375 44.101562 L 22.53125 44.101562 C 17.535156 44.101562 13.492188 48.148438 13.492188 53.144531 C 13.492188 58.144531 17.535156 62.191406 22.53125 62.191406 L 77.910156 62.191406 L 104.832031 226.542969 C 104.785156 226.589844 104.757812 226.621094 104.726562 226.664062 C 98.703125 233.570312 99.140625 242.371094 99.339844 244.464844 C 100.195312 262.125 115.324219 267.398438 123.253906 267.710938 L 304.726562 267.710938 C 308.699219 267.710938 311.925781 264.5 311.925781 260.511719 C 311.925781 256.539062 308.699219 253.308594 304.726562 253.308594 "/>
<g clip-path="url(#clip3)" clip-rule="nonzero">
<path style="fill:none;stroke-width:47.688999;stroke-linecap:round;stroke-linejoin:round;stroke:rgb(0%,0%,0%);stroke-opacity:1;stroke-miterlimit:10;" d="M 2868.998549 1701.90874 L 1702.70508 1701.90874 C 1686.996746 1702.99117 1640.199 1710.895424 1638.008896 1764.312072 C 1638.008896 1765.595884 1637.908201 1766.300721 1637.807507 1767.710397 C 1637.001951 1775.388097 1637.706812 1798.798786 1650.394313 1812.895545 C 1660.212022 1823.896051 1677.506294 1829.610273 1701.295358 1829.912347 L 2694.394372 1829.912347 C 2719.995936 1829.912347 2740.78934 1850.604375 2740.78934 1876.305788 C 2740.78934 1901.906509 2719.995936 1922.699229 2694.394372 1922.699229 L 1700.791885 1922.699229 C 1697.494142 1922.699229 1694.297093 1922.497846 1691.100045 1922.397155 L 1514.305764 3001.201987 C 1509.698993 3029.395505 1485.305762 3050.087534 1456.809233 3050.087534 L 1050.406432 3050.087534 C 1018.209381 3050.087534 992.154692 3024.00853 992.154692 2991.812539 C 992.154692 2959.591375 1018.209381 2933.512371 1050.406432 2933.512371 L 1407.292737 2933.512371 L 1580.789274 1874.392656 C 1580.512365 1874.090583 1580.310976 1873.8892 1580.109587 1873.6123 C 1541.291876 1829.106818 1544.111321 1772.392535 1545.395175 1758.899923 C 1550.908196 1645.093766 1648.405598 1611.110508 1699.508031 1609.096685 L 2868.998549 1609.096685 C 2894.600113 1609.096685 2915.393517 1629.788714 2915.393517 1655.490126 C 2915.393517 1681.090848 2894.600113 1701.90874 2868.998549 1701.90874 Z M 2868.998549 1701.90874 " transform="matrix(0.155172,0,0,-0.155178,-140.462842,517.406558)"/>
</g>
<g clip-path="url(#clip4)" clip-rule="nonzero">
<path style=" stroke:none;fill-rule:nonzero;fill:rgb(0%,0%,0%);fill-opacity:1;" d="M 345.816406 239.53125 L 365.367188 223.066406 L 340.027344 194.25 L 364.203125 172.972656 L 278.984375 144.203125 L 296.65625 232.40625 L 320.832031 211.132812 L 345.816406 239.53125 "/>
</g>
</g>
</svg>
