<?xml version="1.0" encoding="UTF-8"?>
<svg xmlns="http://www.w3.org/2000/svg" xmlns:xlink="http://www.w3.org/1999/xlink" width="375pt" height="374.999991pt" viewBox="0 0 375 374.999991" version="1.2">
<defs>
<clipPath id="clip1">
  <path d="M 12.296875 7.046875 L 362.546875 7.046875 L 362.546875 303 L 12.296875 303 Z M 12.296875 7.046875 "/>
</clipPath>
<clipPath id="clip2">
  <path d="M 99 280 L 188 280 L 188 367.796875 L 99 367.796875 Z M 99 280 "/>
</clipPath>
<clipPath id="clip3">
  <path d="M 253 280 L 341 280 L 341 367.796875 L 253 367.796875 Z M 253 280 "/>
</clipPath>
</defs>
<g id="surface1">
<path style=" stroke:none;fill-rule:nonzero;fill:rgb(100%,100%,100%);fill-opacity:1;" d="M 329.535156 225.683594 L 110.902344 225.683594 L 89.039062 94.503906 L 351.398438 94.503906 Z M 329.535156 225.683594 "/>
<g clip-path="url(#clip1)" clip-rule="nonzero">
<path style=" stroke:none;fill-rule:nonzero;fill:rgb(100%,75.689697%,2.749634%);fill-opacity:1;" d="M 351.222656 280.34375 L 110.726562 280.34375 C 98.765625 280.34375 89.039062 270.605469 89.039062 258.65625 C 89.039062 246.707031 98.941406 236.617188 110.902344 236.617188 L 110.976562 236.605469 L 111.066406 236.617188 L 329.535156 236.617188 C 334.878906 236.617188 339.4375 232.746094 340.3125 227.476562 L 362.175781 96.296875 C 362.710938 93.125 361.816406 89.890625 359.726562 87.429688 C 357.664062 84.980469 354.613281 83.570312 351.398438 83.570312 L 97.96875 83.570312 L 86.601562 16.164062 C 85.738281 10.996094 81.308594 7.507812 76.300781 7.265625 C 76.128906 7.234375 76.007812 7.046875 75.832031 7.046875 L 23.449219 7.046875 C 17.414062 7.046875 12.515625 11.945312 12.515625 17.980469 C 12.515625 24.015625 17.414062 28.914062 23.449219 28.914062 L 66.585938 28.914062 L 98.320312 217.113281 C 80.371094 222.503906 67.175781 238.976562 67.175781 258.65625 C 67.175781 282.671875 86.71875 302.207031 110.726562 302.207031 L 351.222656 302.207031 C 357.269531 302.207031 362.15625 297.320312 362.15625 291.277344 C 362.15625 285.230469 357.269531 280.34375 351.222656 280.34375 Z M 327.566406 171.027344 L 291.417969 171.027344 L 294.402344 149.164062 L 331.195312 149.164062 Z M 269.34375 171.027344 L 231.148438 171.027344 L 231.148438 149.164062 L 272.328125 149.164062 Z M 209.285156 171.027344 L 171.089844 171.027344 L 168.105469 149.164062 L 209.285156 149.164062 Z M 149.03125 171.027344 L 112.878906 171.027344 L 109.238281 149.164062 L 146.046875 149.164062 Z M 120.160156 214.753906 L 116.519531 192.890625 L 152.015625 192.890625 L 155 214.753906 Z M 177.070312 214.753906 L 174.085938 192.890625 L 209.285156 192.890625 L 209.285156 214.753906 Z M 231.148438 214.753906 L 231.148438 192.890625 L 266.351562 192.890625 L 263.367188 214.753906 Z M 285.449219 214.753906 L 288.433594 192.890625 L 323.925781 192.890625 L 320.285156 214.753906 Z M 338.488281 105.433594 L 334.847656 127.296875 L 297.394531 127.296875 L 300.378906 105.433594 Z M 278.308594 105.433594 L 275.324219 127.296875 L 231.148438 127.296875 L 231.148438 105.433594 Z M 209.285156 105.433594 L 209.285156 127.296875 L 165.113281 127.296875 L 162.128906 105.433594 Z M 140.054688 105.433594 L 143.039062 127.296875 L 105.578125 127.296875 L 101.9375 105.433594 Z M 140.054688 105.433594 "/>
</g>
<path style=" stroke:none;fill-rule:nonzero;fill:rgb(100%,75.689697%,2.749634%);fill-opacity:1;" d="M 176.492188 324.070312 C 176.492188 325.144531 176.4375 326.21875 176.332031 327.285156 C 176.226562 328.355469 176.070312 329.417969 175.863281 330.46875 C 175.652344 331.523438 175.390625 332.5625 175.078125 333.589844 C 174.769531 334.621094 174.40625 335.628906 173.996094 336.621094 C 173.585938 337.613281 173.125 338.582031 172.617188 339.53125 C 172.113281 340.476562 171.5625 341.398438 170.964844 342.292969 C 170.367188 343.183594 169.730469 344.046875 169.046875 344.875 C 168.367188 345.707031 167.644531 346.5 166.886719 347.261719 C 166.125 348.019531 165.332031 348.742188 164.5 349.421875 C 163.671875 350.105469 162.808594 350.742188 161.917969 351.339844 C 161.023438 351.9375 160.101562 352.488281 159.15625 352.996094 C 158.207031 353.5 157.238281 353.960938 156.246094 354.371094 C 155.253906 354.78125 154.246094 355.144531 153.214844 355.453125 C 152.1875 355.765625 151.148438 356.027344 150.09375 356.238281 C 149.042969 356.445312 147.980469 356.605469 146.910156 356.710938 C 145.84375 356.8125 144.769531 356.867188 143.695312 356.867188 C 142.621094 356.867188 141.550781 356.8125 140.480469 356.710938 C 139.414062 356.605469 138.351562 356.445312 137.296875 356.238281 C 136.246094 356.027344 135.203125 355.765625 134.175781 355.453125 C 133.148438 355.144531 132.140625 354.78125 131.144531 354.371094 C 130.152344 353.960938 129.183594 353.5 128.238281 352.996094 C 127.289062 352.488281 126.371094 351.9375 125.476562 351.339844 C 124.582031 350.742188 123.722656 350.105469 122.890625 349.421875 C 122.0625 348.742188 121.265625 348.019531 120.507812 347.261719 C 119.746094 346.5 119.027344 345.707031 118.34375 344.875 C 117.664062 344.046875 117.023438 343.183594 116.429688 342.292969 C 115.832031 341.398438 115.28125 340.476562 114.773438 339.53125 C 114.265625 338.582031 113.808594 337.613281 113.398438 336.621094 C 112.988281 335.628906 112.625 334.621094 112.3125 333.589844 C 112 332.5625 111.742188 331.523438 111.53125 330.46875 C 111.320312 329.417969 111.164062 328.355469 111.058594 327.285156 C 110.953125 326.21875 110.902344 325.144531 110.902344 324.070312 C 110.902344 322.996094 110.953125 321.925781 111.058594 320.855469 C 111.164062 319.789062 111.320312 318.726562 111.53125 317.671875 C 111.742188 316.621094 112 315.578125 112.3125 314.550781 C 112.625 313.523438 112.988281 312.511719 113.398438 311.519531 C 113.808594 310.527344 114.265625 309.558594 114.773438 308.613281 C 115.28125 307.664062 115.832031 306.746094 116.429688 305.851562 C 117.023438 304.957031 117.664062 304.097656 118.34375 303.265625 C 119.027344 302.4375 119.746094 301.640625 120.507812 300.882812 C 121.265625 300.121094 122.0625 299.402344 122.890625 298.71875 C 123.722656 298.039062 124.582031 297.398438 125.476562 296.804688 C 126.371094 296.207031 127.289062 295.65625 128.238281 295.148438 C 129.183594 294.640625 130.152344 294.183594 131.144531 293.773438 C 132.140625 293.363281 133.148438 293 134.175781 292.6875 C 135.203125 292.375 136.246094 292.117188 137.296875 291.90625 C 138.351562 291.695312 139.414062 291.539062 140.480469 291.433594 C 141.550781 291.328125 142.621094 291.277344 143.695312 291.277344 C 144.769531 291.277344 145.84375 291.328125 146.910156 291.433594 C 147.980469 291.539062 149.042969 291.695312 150.09375 291.90625 C 151.148438 292.117188 152.1875 292.375 153.214844 292.6875 C 154.246094 293 155.253906 293.363281 156.246094 293.773438 C 157.238281 294.183594 158.207031 294.640625 159.15625 295.148438 C 160.101562 295.65625 161.023438 296.207031 161.917969 296.804688 C 162.808594 297.398438 163.671875 298.039062 164.5 298.71875 C 165.332031 299.402344 166.125 300.121094 166.886719 300.882812 C 167.644531 301.640625 168.367188 302.4375 169.046875 303.265625 C 169.730469 304.097656 170.367188 304.957031 170.964844 305.851562 C 171.5625 306.746094 172.113281 307.664062 172.617188 308.613281 C 173.125 309.558594 173.585938 310.527344 173.996094 311.519531 C 174.40625 312.511719 174.769531 313.523438 175.078125 314.550781 C 175.390625 315.578125 175.652344 316.621094 175.863281 317.671875 C 176.070312 318.726562 176.226562 319.789062 176.332031 320.855469 C 176.4375 321.925781 176.492188 322.996094 176.492188 324.070312 Z M 176.492188 324.070312 "/>
<g clip-path="url(#clip2)" clip-rule="nonzero">
<path style=" stroke:none;fill-rule:nonzero;fill:rgb(16.079712%,18.429565%,19.999695%);fill-opacity:1;" d="M 143.695312 367.796875 C 119.582031 367.796875 99.96875 348.1875 99.96875 324.070312 C 99.96875 299.957031 119.582031 280.34375 143.695312 280.34375 C 167.8125 280.34375 187.421875 299.957031 187.421875 324.070312 C 187.421875 348.1875 167.8125 367.796875 143.695312 367.796875 Z M 143.695312 302.207031 C 131.640625 302.207031 121.832031 312.015625 121.832031 324.070312 C 121.832031 336.128906 131.640625 345.933594 143.695312 345.933594 C 155.753906 345.933594 165.558594 336.128906 165.558594 324.070312 C 165.558594 312.015625 155.753906 302.207031 143.695312 302.207031 Z M 143.695312 302.207031 "/>
</g>
<path style=" stroke:none;fill-rule:nonzero;fill:rgb(100%,75.689697%,2.749634%);fill-opacity:1;" d="M 329.535156 324.070312 C 329.535156 325.144531 329.480469 326.21875 329.378906 327.285156 C 329.273438 328.355469 329.113281 329.417969 328.90625 330.46875 C 328.695312 331.523438 328.433594 332.5625 328.121094 333.589844 C 327.8125 334.621094 327.449219 335.628906 327.039062 336.621094 C 326.628906 337.613281 326.167969 338.582031 325.664062 339.53125 C 325.15625 340.476562 324.605469 341.398438 324.007812 342.292969 C 323.410156 343.183594 322.773438 344.046875 322.089844 344.875 C 321.410156 345.707031 320.6875 346.5 319.929688 347.261719 C 319.171875 348.019531 318.375 348.742188 317.546875 349.421875 C 316.714844 350.105469 315.851562 350.742188 314.960938 351.339844 C 314.066406 351.9375 313.148438 352.488281 312.199219 352.996094 C 311.253906 353.5 310.28125 353.960938 309.289062 354.371094 C 308.296875 354.78125 307.289062 355.144531 306.261719 355.453125 C 305.230469 355.765625 304.191406 356.027344 303.136719 356.238281 C 302.085938 356.445312 301.023438 356.605469 299.953125 356.710938 C 298.886719 356.8125 297.8125 356.867188 296.738281 356.867188 C 295.664062 356.867188 294.59375 356.8125 293.527344 356.710938 C 292.457031 356.605469 291.394531 356.445312 290.34375 356.238281 C 289.289062 356.027344 288.246094 355.765625 287.21875 355.453125 C 286.191406 355.144531 285.183594 354.78125 284.191406 354.371094 C 283.199219 353.960938 282.226562 353.5 281.28125 352.996094 C 280.332031 352.488281 279.414062 351.9375 278.519531 351.339844 C 277.628906 350.742188 276.765625 350.105469 275.933594 349.421875 C 275.105469 348.742188 274.308594 348.019531 273.550781 347.261719 C 272.789062 346.5 272.070312 345.707031 271.390625 344.875 C 270.707031 344.046875 270.070312 343.183594 269.472656 342.292969 C 268.875 341.398438 268.324219 340.476562 267.816406 339.53125 C 267.3125 338.582031 266.851562 337.613281 266.441406 336.621094 C 266.03125 335.628906 265.667969 334.621094 265.355469 333.589844 C 265.046875 332.5625 264.785156 331.523438 264.574219 330.46875 C 264.367188 329.417969 264.207031 328.355469 264.101562 327.285156 C 263.996094 326.21875 263.945312 325.144531 263.945312 324.070312 C 263.945312 322.996094 263.996094 321.925781 264.101562 320.855469 C 264.207031 319.789062 264.367188 318.726562 264.574219 317.671875 C 264.785156 316.621094 265.046875 315.578125 265.355469 314.550781 C 265.667969 313.523438 266.03125 312.511719 266.441406 311.519531 C 266.851562 310.527344 267.3125 309.558594 267.816406 308.613281 C 268.324219 307.664062 268.875 306.746094 269.472656 305.851562 C 270.070312 304.957031 270.707031 304.097656 271.390625 303.265625 C 272.070312 302.4375 272.789062 301.640625 273.550781 300.882812 C 274.308594 300.121094 275.105469 299.402344 275.933594 298.71875 C 276.765625 298.039062 277.628906 297.398438 278.519531 296.804688 C 279.414062 296.207031 280.332031 295.65625 281.28125 295.148438 C 282.226562 294.640625 283.199219 294.183594 284.191406 293.773438 C 285.183594 293.363281 286.191406 293 287.21875 292.6875 C 288.246094 292.375 289.289062 292.117188 290.34375 291.90625 C 291.394531 291.695312 292.457031 291.539062 293.527344 291.433594 C 294.59375 291.328125 295.664062 291.277344 296.738281 291.277344 C 297.8125 291.277344 298.886719 291.328125 299.953125 291.433594 C 301.023438 291.539062 302.085938 291.695312 303.136719 291.90625 C 304.191406 292.117188 305.230469 292.375 306.261719 292.6875 C 307.289062 293 308.296875 293.363281 309.289062 293.773438 C 310.28125 294.183594 311.253906 294.640625 312.199219 295.148438 C 313.148438 295.65625 314.066406 296.207031 314.960938 296.804688 C 315.851562 297.398438 316.714844 298.039062 317.546875 298.71875 C 318.375 299.402344 319.171875 300.121094 319.929688 300.882812 C 320.6875 301.640625 321.410156 302.4375 322.089844 303.265625 C 322.773438 304.097656 323.410156 304.957031 324.007812 305.851562 C 324.605469 306.746094 325.15625 307.664062 325.664062 308.613281 C 326.167969 309.558594 326.628906 310.527344 327.039062 311.519531 C 327.449219 312.511719 327.8125 313.523438 328.121094 314.550781 C 328.433594 315.578125 328.695312 316.621094 328.90625 317.671875 C 329.113281 318.726562 329.273438 319.789062 329.378906 320.855469 C 329.484375 321.925781 329.535156 322.996094 329.535156 324.070312 Z M 329.535156 324.070312 "/>
<g clip-path="url(#clip3)" clip-rule="nonzero">
<path style=" stroke:none;fill-rule:nonzero;fill:rgb(16.079712%,18.429565%,19.999695%);fill-opacity:1;" d="M 296.738281 367.796875 C 272.625 367.796875 253.011719 348.1875 253.011719 324.070312 C 253.011719 299.957031 272.625 280.34375 296.738281 280.34375 C 320.855469 280.34375 340.464844 299.957031 340.464844 324.070312 C 340.464844 348.1875 320.855469 367.796875 296.738281 367.796875 Z M 296.738281 302.207031 C 284.683594 302.207031 274.875 312.015625 274.875 324.070312 C 274.875 336.128906 284.683594 345.933594 296.738281 345.933594 C 308.796875 345.933594 318.601562 336.128906 318.601562 324.070312 C 318.601562 312.015625 308.796875 302.207031 296.738281 302.207031 Z M 296.738281 302.207031 "/>
</g>
</g>
</svg>
