<?xml version="1.0" encoding="UTF-8"?>
<svg xmlns="http://www.w3.org/2000/svg" xmlns:xlink="http://www.w3.org/1999/xlink" width="375pt" height="374.999991pt" viewBox="0 0 375 374.999991" version="1.2">
<defs>
<clipPath id="clip1">
  <path d="M 8 36.996094 L 366 36.996094 L 366 337.746094 L 8 337.746094 Z M 8 36.996094 "/>
</clipPath>
</defs>
<g id="surface1">
<g clip-path="url(#clip1)" clip-rule="nonzero">
<path style=" stroke:none;fill-rule:nonzero;fill:rgb(100%,75.689697%,2.749634%);fill-opacity:1;" d="M 23.449219 36.996094 C 15.144531 36.996094 8.402344 43.734375 8.402344 52.035156 C 8.402344 60.335938 15.144531 67.070312 23.449219 67.070312 L 56.835938 67.070312 L 68.121094 112.183594 L 326.570312 112.183594 L 297.859375 217.445312 L 143.828125 217.445312 L 143.828125 247.523438 L 297.828125 247.523438 C 311.402344 247.523438 323.285156 238.429688 326.863281 225.347656 L 365.984375 82.109375 L 91.601562 82.109375 L 86.019531 59.789062 C 82.679688 46.40625 70.648438 36.996094 56.835938 36.996094 Z M 279.253906 247.523438 C 254.503906 247.523438 234.113281 267.898438 234.113281 292.632812 C 234.113281 317.371094 254.503906 337.746094 279.253906 337.746094 C 304.007812 337.746094 324.398438 317.371094 324.398438 292.632812 C 324.398438 267.898438 304.007812 247.523438 279.253906 247.523438 Z M 143.828125 247.523438 C 119.074219 247.523438 98.6875 267.898438 98.6875 292.632812 C 98.6875 317.371094 119.074219 337.746094 143.828125 337.746094 C 168.582031 337.746094 188.96875 317.371094 188.96875 292.632812 C 188.96875 267.898438 168.582031 247.523438 143.828125 247.523438 Z M 38.496094 142.257812 L 38.496094 172.335938 L 158.875 172.335938 L 158.875 142.257812 Z M 38.496094 202.410156 L 38.496094 232.484375 L 113.734375 232.484375 L 113.734375 202.410156 Z M 143.828125 277.597656 C 152.332031 277.597656 158.875 284.136719 158.875 292.632812 C 158.875 301.132812 152.332031 307.671875 143.828125 307.671875 C 135.324219 307.671875 128.78125 301.132812 128.78125 292.632812 C 128.78125 284.136719 135.324219 277.597656 143.828125 277.597656 Z M 279.253906 277.597656 C 287.757812 277.597656 294.300781 284.136719 294.300781 292.632812 C 294.300781 301.132812 287.757812 307.671875 279.253906 307.671875 C 270.753906 307.671875 264.207031 301.132812 264.207031 292.632812 C 264.207031 284.136719 270.753906 277.597656 279.253906 277.597656 Z M 279.253906 277.597656 "/>
</g>
</g>
</svg>
