<?xml version="1.0" encoding="UTF-8"?>
<svg xmlns="http://www.w3.org/2000/svg" xmlns:xlink="http://www.w3.org/1999/xlink" width="375pt" height="374.999991pt" viewBox="0 0 375 374.999991" version="1.2">
<defs>
<clipPath id="clip1">
  <path d="M 67 91 L 366.378906 91 L 366.378906 263 L 67 263 Z M 67 91 "/>
</clipPath>
<clipPath id="clip2">
  <path d="M 8.628906 16.457031 L 76 16.457031 L 76 76 L 8.628906 76 Z M 8.628906 16.457031 "/>
</clipPath>
<clipPath id="clip3">
  <path d="M 99 284 L 174 284 L 174 358.457031 L 99 358.457031 Z M 99 284 "/>
</clipPath>
<clipPath id="clip4">
  <path d="M 260 284 L 335 284 L 335 358.457031 L 260 358.457031 Z M 260 284 "/>
</clipPath>
</defs>
<g id="surface1">
<g clip-path="url(#clip1)" clip-rule="nonzero">
<path style=" stroke:none;fill-rule:nonzero;fill:rgb(100%,75.689697%,2.749634%);fill-opacity:1;" d="M 297.644531 262.898438 L 136.316406 262.898438 C 134.554688 262.890625 132.808594 262.742188 131.074219 262.449219 C 129.335938 262.160156 127.636719 261.726562 125.972656 261.160156 C 124.308594 260.589844 122.699219 259.890625 121.148438 259.058594 C 119.597656 258.226562 118.125 257.273438 116.730469 256.203125 C 115.335938 255.128906 114.035156 253.953125 112.832031 252.667969 C 111.628906 251.382812 110.539062 250.011719 109.558594 248.550781 C 108.582031 247.085938 107.726562 245.554688 107 243.953125 C 106.269531 242.351562 105.675781 240.703125 105.214844 239.003906 L 67.914062 101.023438 C 67.765625 100.46875 67.683594 99.902344 67.664062 99.328125 C 67.648438 98.753906 67.695312 98.1875 67.808594 97.625 C 67.917969 97.058594 68.09375 96.515625 68.332031 95.992188 C 68.566406 95.46875 68.859375 94.980469 69.210938 94.523438 C 69.558594 94.070312 69.953125 93.65625 70.398438 93.292969 C 70.839844 92.925781 71.320312 92.617188 71.832031 92.359375 C 72.347656 92.105469 72.882812 91.910156 73.441406 91.777344 C 74.003906 91.644531 74.570312 91.574219 75.144531 91.570312 L 358.832031 91.570312 C 360 91.566406 361.105469 91.824219 362.152344 92.347656 C 363.195312 92.867188 364.070312 93.59375 364.773438 94.523438 C 365.480469 95.449219 365.949219 96.480469 366.175781 97.625 C 366.402344 98.765625 366.363281 99.898438 366.0625 101.023438 L 328.851562 239.003906 C 328.390625 240.707031 327.792969 242.359375 327.058594 243.964844 C 326.328125 245.566406 325.46875 247.101562 324.488281 248.566406 C 323.503906 250.03125 322.40625 251.402344 321.199219 252.6875 C 319.992188 253.972656 318.6875 255.152344 317.289062 256.226562 C 315.886719 257.296875 314.410156 258.25 312.855469 259.078125 C 311.296875 259.910156 309.683594 260.609375 308.015625 261.175781 C 306.34375 261.742188 304.640625 262.171875 302.898438 262.460938 C 301.160156 262.75 299.40625 262.894531 297.644531 262.898438 Z M 297.644531 262.898438 "/>
</g>
<g clip-path="url(#clip2)" clip-rule="nonzero">
<path style=" stroke:none;fill-rule:nonzero;fill:rgb(100%,75.689697%,2.749634%);fill-opacity:1;" d="M 61.226562 75.902344 L 49.113281 31.207031 L 8.683594 31.207031 L 8.683594 16.191406 L 54.929688 16.191406 C 55.753906 16.191406 56.554688 16.328125 57.335938 16.59375 C 58.117188 16.859375 58.835938 17.246094 59.488281 17.746094 C 60.140625 18.25 60.699219 18.84375 61.15625 19.53125 C 61.613281 20.21875 61.945312 20.960938 62.160156 21.757812 L 75.71875 71.984375 Z M 61.226562 75.902344 "/>
</g>
<g clip-path="url(#clip3)" clip-rule="nonzero">
<path style=" stroke:none;fill-rule:nonzero;fill:rgb(100%,75.689697%,2.749634%);fill-opacity:1;" d="M 136.316406 358.71875 C 135.105469 358.71875 133.902344 358.660156 132.699219 358.539062 C 131.496094 358.421875 130.300781 358.246094 129.113281 358.007812 C 127.929688 357.773438 126.757812 357.476562 125.601562 357.125 C 124.445312 356.777344 123.308594 356.367188 122.191406 355.90625 C 121.074219 355.441406 119.984375 354.925781 118.917969 354.355469 C 117.851562 353.785156 116.816406 353.164062 115.8125 352.492188 C 114.804688 351.820312 113.835938 351.101562 112.902344 350.335938 C 111.96875 349.566406 111.074219 348.757812 110.21875 347.902344 C 109.363281 347.046875 108.554688 346.152344 107.789062 345.21875 C 107.019531 344.285156 106.300781 343.3125 105.628906 342.308594 C 104.960938 341.304688 104.339844 340.269531 103.769531 339.203125 C 103.199219 338.136719 102.683594 337.042969 102.222656 335.925781 C 101.757812 334.8125 101.351562 333.675781 101.003906 332.515625 C 100.652344 331.359375 100.359375 330.191406 100.125 329.003906 C 99.886719 327.820312 99.710938 326.625 99.59375 325.421875 C 99.476562 324.21875 99.417969 323.011719 99.417969 321.804688 C 99.417969 320.597656 99.476562 319.390625 99.59375 318.1875 C 99.714844 316.984375 99.890625 315.792969 100.125 314.605469 C 100.363281 313.421875 100.65625 312.25 101.007812 311.09375 C 101.359375 309.9375 101.765625 308.800781 102.226562 307.6875 C 102.691406 306.570312 103.207031 305.476562 103.777344 304.414062 C 104.347656 303.347656 104.96875 302.3125 105.640625 301.308594 C 106.3125 300.300781 107.03125 299.332031 107.796875 298.398438 C 108.566406 297.464844 109.375 296.570312 110.230469 295.714844 C 111.085938 294.863281 111.980469 294.050781 112.914062 293.285156 C 113.847656 292.519531 114.820312 291.800781 115.824219 291.128906 C 116.828125 290.457031 117.863281 289.835938 118.929688 289.265625 C 119.996094 288.695312 121.089844 288.179688 122.207031 287.71875 C 123.324219 287.257812 124.460938 286.851562 125.617188 286.5 C 126.773438 286.148438 127.945312 285.855469 129.128906 285.621094 C 130.316406 285.382812 131.511719 285.207031 132.714844 285.089844 C 133.917969 284.96875 135.121094 284.910156 136.332031 284.910156 C 137.539062 284.910156 138.746094 284.96875 139.949219 285.089844 C 141.152344 285.207031 142.347656 285.382812 143.535156 285.621094 C 144.71875 285.855469 145.890625 286.148438 147.046875 286.5 C 148.203125 286.851562 149.339844 287.257812 150.457031 287.722656 C 151.574219 288.183594 152.667969 288.699219 153.734375 289.269531 C 154.800781 289.839844 155.835938 290.460938 156.839844 291.132812 C 157.847656 291.804688 158.816406 292.523438 159.75 293.289062 C 160.683594 294.054688 161.578125 294.867188 162.433594 295.722656 C 163.289062 296.574219 164.101562 297.46875 164.867188 298.40625 C 165.632812 299.339844 166.355469 300.308594 167.023438 301.3125 C 167.695312 302.320312 168.316406 303.355469 168.886719 304.417969 C 169.457031 305.484375 169.972656 306.578125 170.4375 307.695312 C 170.898438 308.808594 171.304688 309.945312 171.65625 311.101562 C 172.007812 312.261719 172.300781 313.429688 172.535156 314.617188 C 172.773438 315.800781 172.949219 316.996094 173.070312 318.199219 C 173.1875 319.402344 173.246094 320.605469 173.246094 321.816406 C 173.246094 323.023438 173.183594 324.230469 173.0625 325.433594 C 172.945312 326.632812 172.765625 327.828125 172.527344 329.015625 C 172.292969 330.199219 171.996094 331.371094 171.644531 332.527344 C 171.292969 333.683594 170.886719 334.816406 170.421875 335.933594 C 169.957031 337.050781 169.441406 338.140625 168.871094 339.207031 C 168.300781 340.273438 167.679688 341.308594 167.007812 342.3125 C 166.335938 343.316406 165.617188 344.285156 164.847656 345.21875 C 164.082031 346.152344 163.269531 347.046875 162.414062 347.902344 C 161.558594 348.757812 160.664062 349.566406 159.730469 350.335938 C 158.796875 351.101562 157.828125 351.820312 156.820312 352.492188 C 155.816406 353.164062 154.78125 353.785156 153.714844 354.355469 C 152.648438 354.921875 151.558594 355.441406 150.441406 355.902344 C 149.324219 356.367188 148.1875 356.773438 147.03125 357.125 C 145.875 357.476562 144.703125 357.769531 143.515625 358.007812 C 142.332031 358.242188 141.136719 358.421875 139.933594 358.539062 C 138.730469 358.660156 137.523438 358.71875 136.316406 358.71875 Z M 136.316406 358.71875 "/>
</g>
<g clip-path="url(#clip4)" clip-rule="nonzero">
<path style=" stroke:none;fill-rule:nonzero;fill:rgb(100%,75.689697%,2.749634%);fill-opacity:1;" d="M 297.644531 358.71875 C 296.433594 358.71875 295.230469 358.660156 294.027344 358.542969 C 292.824219 358.425781 291.628906 358.246094 290.441406 358.011719 C 289.257812 357.773438 288.085938 357.480469 286.929688 357.132812 C 285.769531 356.78125 284.632812 356.375 283.515625 355.910156 C 282.398438 355.449219 281.308594 354.933594 280.242188 354.363281 C 279.175781 353.792969 278.140625 353.171875 277.136719 352.5 C 276.128906 351.828125 275.160156 351.109375 274.226562 350.34375 C 273.289062 349.578125 272.394531 348.765625 271.539062 347.910156 C 270.6875 347.054688 269.875 346.160156 269.109375 345.226562 C 268.339844 344.292969 267.621094 343.324219 266.949219 342.320312 C 266.277344 341.3125 265.65625 340.277344 265.085938 339.210938 C 264.519531 338.144531 264 337.054688 263.539062 335.9375 C 263.074219 334.820312 262.667969 333.683594 262.320312 332.527344 C 261.96875 331.371094 261.675781 330.199219 261.4375 329.015625 C 261.203125 327.828125 261.023438 326.636719 260.90625 325.433594 C 260.789062 324.230469 260.730469 323.023438 260.730469 321.816406 C 260.730469 320.605469 260.789062 319.402344 260.90625 318.199219 C 261.023438 316.996094 261.203125 315.800781 261.4375 314.617188 C 261.675781 313.429688 261.96875 312.257812 262.320312 311.101562 C 262.667969 309.945312 263.074219 308.808594 263.539062 307.691406 C 264 306.574219 264.519531 305.484375 265.085938 304.417969 C 265.65625 303.351562 266.277344 302.316406 266.949219 301.3125 C 267.621094 300.308594 268.339844 299.335938 269.109375 298.402344 C 269.875 297.46875 270.6875 296.574219 271.539062 295.71875 C 272.394531 294.863281 273.289062 294.054688 274.226562 293.289062 C 275.160156 292.519531 276.128906 291.800781 277.136719 291.128906 C 278.140625 290.457031 279.175781 289.835938 280.242188 289.269531 C 281.308594 288.699219 282.398438 288.183594 283.515625 287.71875 C 284.632812 287.257812 285.769531 286.851562 286.929688 286.5 C 288.085938 286.148438 289.257812 285.855469 290.441406 285.621094 C 291.628906 285.382812 292.824219 285.207031 294.027344 285.089844 C 295.230469 284.96875 296.433594 284.910156 297.644531 284.910156 C 298.851562 284.910156 300.058594 284.96875 301.261719 285.089844 C 302.464844 285.207031 303.660156 285.382812 304.84375 285.621094 C 306.03125 285.855469 307.203125 286.148438 308.359375 286.5 C 309.515625 286.851562 310.652344 287.257812 311.769531 287.71875 C 312.886719 288.183594 313.980469 288.699219 315.046875 289.269531 C 316.113281 289.835938 317.148438 290.457031 318.152344 291.128906 C 319.15625 291.800781 320.128906 292.519531 321.0625 293.289062 C 321.996094 294.054688 322.890625 294.863281 323.746094 295.71875 C 324.601562 296.574219 325.414062 297.46875 326.179688 298.402344 C 326.945312 299.335938 327.664062 300.308594 328.335938 301.3125 C 329.007812 302.316406 329.628906 303.351562 330.199219 304.417969 C 330.769531 305.484375 331.285156 306.574219 331.75 307.691406 C 332.210938 308.808594 332.617188 309.945312 332.96875 311.101562 C 333.320312 312.257812 333.613281 313.429688 333.847656 314.617188 C 334.085938 315.800781 334.261719 316.996094 334.382812 318.199219 C 334.5 319.402344 334.558594 320.605469 334.558594 321.816406 C 334.558594 323.023438 334.496094 324.226562 334.375 325.429688 C 334.253906 326.632812 334.078125 327.824219 333.839844 329.011719 C 333.601562 330.195312 333.308594 331.367188 332.957031 332.519531 C 332.601562 333.675781 332.195312 334.8125 331.730469 335.929688 C 331.269531 337.042969 330.75 338.132812 330.183594 339.199219 C 329.609375 340.265625 328.988281 341.300781 328.320312 342.304688 C 327.648438 343.308594 326.925781 344.277344 326.160156 345.210938 C 325.394531 346.144531 324.582031 347.039062 323.726562 347.894531 C 322.875 348.746094 321.980469 349.558594 321.046875 350.324219 C 320.113281 351.089844 319.140625 351.808594 318.136719 352.480469 C 317.132812 353.152344 316.097656 353.773438 315.03125 354.34375 C 313.96875 354.914062 312.878906 355.429688 311.761719 355.894531 C 310.644531 356.359375 309.507812 356.765625 308.351562 357.117188 C 307.195312 357.46875 306.027344 357.761719 304.839844 358 C 303.65625 358.238281 302.460938 358.417969 301.261719 358.535156 C 300.058594 358.65625 298.851562 358.71875 297.644531 358.71875 Z M 297.644531 358.71875 "/>
</g>
</g>
</svg>
